<mxfile host="65bd71144e">
    <diagram id="7DE0k2-qRSgwTadbli-e" name="Page-1">
        <mxGraphModel dx="2150" dy="805" grid="1" gridSize="10" guides="1" tooltips="1" connect="1" arrows="1" fold="1" page="1" pageScale="1" pageWidth="850" pageHeight="1100" math="0" shadow="0">
            <root>
                <mxCell id="0"/>
                <mxCell id="1" parent="0"/>
                <mxCell id="515" value="" style="rounded=0;whiteSpace=wrap;html=1;labelBackgroundColor=none;fontSize=8;align=center;verticalAlign=middle;" parent="1" vertex="1">
                    <mxGeometry x="-160" y="700" width="440" height="290" as="geometry"/>
                </mxCell>
                <mxCell id="377" value="" style="rounded=0;whiteSpace=wrap;html=1;labelBackgroundColor=none;fontSize=8;align=center;verticalAlign=middle;" parent="1" vertex="1">
                    <mxGeometry x="980" y="100" width="440" height="370" as="geometry"/>
                </mxCell>
                <mxCell id="241" value="" style="rounded=0;whiteSpace=wrap;html=1;labelBackgroundColor=none;fontSize=8;align=center;verticalAlign=middle;" parent="1" vertex="1">
                    <mxGeometry x="510" y="100" width="440" height="370" as="geometry"/>
                </mxCell>
                <mxCell id="139" value="" style="rounded=0;whiteSpace=wrap;html=1;labelBackgroundColor=none;fontSize=8;align=center;verticalAlign=middle;" parent="1" vertex="1">
                    <mxGeometry x="-160" y="100" width="440" height="370" as="geometry"/>
                </mxCell>
                <mxCell id="48" value="" style="rounded=0;whiteSpace=wrap;html=1;fontSize=5;verticalAlign=middle;labelBackgroundColor=#E6E6E6;" parent="1" vertex="1">
                    <mxGeometry x="-160" y="40" width="440" height="60" as="geometry"/>
                </mxCell>
                <mxCell id="22" value="Logo" style="rounded=1;whiteSpace=wrap;html=1;" parent="1" vertex="1">
                    <mxGeometry x="-100" y="55" width="60" height="30" as="geometry"/>
                </mxCell>
                <mxCell id="25" value="Nhân viên" style="rounded=0;whiteSpace=wrap;html=1;fontSize=9;" parent="1" vertex="1">
                    <mxGeometry y="60" width="70" height="20" as="geometry"/>
                </mxCell>
                <mxCell id="27" value="Bảng lương" style="rounded=0;whiteSpace=wrap;html=1;fontSize=9;" parent="1" vertex="1">
                    <mxGeometry x="180" y="60" width="70" height="20" as="geometry"/>
                </mxCell>
                <mxCell id="28" value="Phòng ban" style="rounded=0;whiteSpace=wrap;html=1;fontSize=9;" parent="1" vertex="1">
                    <mxGeometry x="90" y="60" width="70" height="20" as="geometry"/>
                </mxCell>
                <mxCell id="29" value="Phòng ban" style="rounded=1;whiteSpace=wrap;html=1;fontSize=8;verticalAlign=middle;" parent="1" vertex="1">
                    <mxGeometry x="-150" y="120" width="50" height="20" as="geometry"/>
                </mxCell>
                <mxCell id="30" value="Tìm kiếm nhân viên" style="rounded=1;whiteSpace=wrap;html=1;fontSize=8;verticalAlign=middle;" parent="1" vertex="1">
                    <mxGeometry x="140" y="120" width="130" height="20" as="geometry"/>
                </mxCell>
                <mxCell id="31" value="DANH SÁCH NHÂN VIÊN" style="text;html=1;strokeColor=none;fillColor=none;align=center;verticalAlign=middle;whiteSpace=wrap;rounded=0;fontSize=10;" parent="1" vertex="1">
                    <mxGeometry x="-7.5" y="150" width="135" height="20" as="geometry"/>
                </mxCell>
                <mxCell id="35" value="" style="endArrow=none;html=1;fontSize=8;" parent="1" edge="1">
                    <mxGeometry width="50" height="50" relative="1" as="geometry">
                        <mxPoint x="-35" y="180" as="sourcePoint"/>
                        <mxPoint x="155" y="180" as="targetPoint"/>
                        <Array as="points">
                            <mxPoint x="85" y="180"/>
                        </Array>
                    </mxGeometry>
                </mxCell>
                <mxCell id="37" value="Ảnh" style="rounded=0;whiteSpace=wrap;html=1;fontSize=9;verticalAlign=middle;" parent="1" vertex="1">
                    <mxGeometry x="-120" y="200" width="50" height="50" as="geometry"/>
                </mxCell>
                <mxCell id="38" value="Tên nhân viên" style="rounded=0;whiteSpace=wrap;html=1;fontSize=5;verticalAlign=middle;" parent="1" vertex="1">
                    <mxGeometry x="-120" y="250" width="50" height="10" as="geometry"/>
                </mxCell>
                <mxCell id="85" value="Ảnh" style="rounded=0;whiteSpace=wrap;html=1;fontSize=9;verticalAlign=middle;" parent="1" vertex="1">
                    <mxGeometry x="-62.5" y="200" width="50" height="50" as="geometry"/>
                </mxCell>
                <mxCell id="86" value="Tên nhân viên" style="rounded=0;whiteSpace=wrap;html=1;fontSize=5;verticalAlign=middle;" parent="1" vertex="1">
                    <mxGeometry x="-62.5" y="250" width="50" height="10" as="geometry"/>
                </mxCell>
                <mxCell id="87" value="Ảnh" style="rounded=0;whiteSpace=wrap;html=1;fontSize=9;verticalAlign=middle;" parent="1" vertex="1">
                    <mxGeometry x="-5" y="200" width="50" height="50" as="geometry"/>
                </mxCell>
                <mxCell id="88" value="Tên nhân viên" style="rounded=0;whiteSpace=wrap;html=1;fontSize=5;verticalAlign=middle;" parent="1" vertex="1">
                    <mxGeometry x="-5" y="250" width="50" height="10" as="geometry"/>
                </mxCell>
                <mxCell id="89" value="Ảnh" style="rounded=0;whiteSpace=wrap;html=1;fontSize=9;verticalAlign=middle;" parent="1" vertex="1">
                    <mxGeometry x="55" y="200" width="50" height="50" as="geometry"/>
                </mxCell>
                <mxCell id="90" value="Tên nhân viên" style="rounded=0;whiteSpace=wrap;html=1;fontSize=5;verticalAlign=middle;" parent="1" vertex="1">
                    <mxGeometry x="55" y="250" width="50" height="10" as="geometry"/>
                </mxCell>
                <mxCell id="91" value="Ảnh" style="rounded=0;whiteSpace=wrap;html=1;fontSize=9;verticalAlign=middle;" parent="1" vertex="1">
                    <mxGeometry x="115" y="200" width="50" height="50" as="geometry"/>
                </mxCell>
                <mxCell id="92" value="Tên nhân viên" style="rounded=0;whiteSpace=wrap;html=1;fontSize=5;verticalAlign=middle;" parent="1" vertex="1">
                    <mxGeometry x="115" y="250" width="50" height="10" as="geometry"/>
                </mxCell>
                <mxCell id="93" value="Ảnh" style="rounded=0;whiteSpace=wrap;html=1;fontSize=9;verticalAlign=middle;" parent="1" vertex="1">
                    <mxGeometry x="175" y="200" width="50" height="50" as="geometry"/>
                </mxCell>
                <mxCell id="94" value="Tên nhân viên" style="rounded=0;whiteSpace=wrap;html=1;fontSize=5;verticalAlign=middle;" parent="1" vertex="1">
                    <mxGeometry x="175" y="250" width="50" height="10" as="geometry"/>
                </mxCell>
                <mxCell id="95" value="Ảnh" style="rounded=0;whiteSpace=wrap;html=1;fontSize=9;verticalAlign=middle;" parent="1" vertex="1">
                    <mxGeometry x="-120" y="270" width="50" height="50" as="geometry"/>
                </mxCell>
                <mxCell id="96" value="Tên nhân viên" style="rounded=0;whiteSpace=wrap;html=1;fontSize=5;verticalAlign=middle;" parent="1" vertex="1">
                    <mxGeometry x="-120" y="320" width="50" height="10" as="geometry"/>
                </mxCell>
                <mxCell id="97" value="Ảnh" style="rounded=0;whiteSpace=wrap;html=1;fontSize=9;verticalAlign=middle;" parent="1" vertex="1">
                    <mxGeometry x="-62.5" y="270" width="50" height="50" as="geometry"/>
                </mxCell>
                <mxCell id="98" value="Tên nhân viên" style="rounded=0;whiteSpace=wrap;html=1;fontSize=5;verticalAlign=middle;" parent="1" vertex="1">
                    <mxGeometry x="-62.5" y="320" width="50" height="10" as="geometry"/>
                </mxCell>
                <mxCell id="99" value="Ảnh" style="rounded=0;whiteSpace=wrap;html=1;fontSize=9;verticalAlign=middle;" parent="1" vertex="1">
                    <mxGeometry x="-5" y="270" width="50" height="50" as="geometry"/>
                </mxCell>
                <mxCell id="100" value="Tên nhân viên" style="rounded=0;whiteSpace=wrap;html=1;fontSize=5;verticalAlign=middle;" parent="1" vertex="1">
                    <mxGeometry x="-5" y="320" width="50" height="10" as="geometry"/>
                </mxCell>
                <mxCell id="101" value="Ảnh" style="rounded=0;whiteSpace=wrap;html=1;fontSize=9;verticalAlign=middle;" parent="1" vertex="1">
                    <mxGeometry x="55" y="270" width="50" height="50" as="geometry"/>
                </mxCell>
                <mxCell id="102" value="Tên nhân viên" style="rounded=0;whiteSpace=wrap;html=1;fontSize=5;verticalAlign=middle;" parent="1" vertex="1">
                    <mxGeometry x="55" y="320" width="50" height="10" as="geometry"/>
                </mxCell>
                <mxCell id="103" value="Ảnh" style="rounded=0;whiteSpace=wrap;html=1;fontSize=9;verticalAlign=middle;" parent="1" vertex="1">
                    <mxGeometry x="115" y="270" width="50" height="50" as="geometry"/>
                </mxCell>
                <mxCell id="104" value="Tên nhân viên" style="rounded=0;whiteSpace=wrap;html=1;fontSize=5;verticalAlign=middle;" parent="1" vertex="1">
                    <mxGeometry x="115" y="320" width="50" height="10" as="geometry"/>
                </mxCell>
                <mxCell id="105" value="Ảnh" style="rounded=0;whiteSpace=wrap;html=1;fontSize=9;verticalAlign=middle;" parent="1" vertex="1">
                    <mxGeometry x="175" y="270" width="50" height="50" as="geometry"/>
                </mxCell>
                <mxCell id="106" value="Tên nhân viên" style="rounded=0;whiteSpace=wrap;html=1;fontSize=5;verticalAlign=middle;" parent="1" vertex="1">
                    <mxGeometry x="175" y="320" width="50" height="10" as="geometry"/>
                </mxCell>
                <mxCell id="107" value="Ảnh" style="rounded=0;whiteSpace=wrap;html=1;fontSize=9;verticalAlign=middle;" parent="1" vertex="1">
                    <mxGeometry x="-120" y="340" width="50" height="50" as="geometry"/>
                </mxCell>
                <mxCell id="108" value="Tên nhân viên" style="rounded=0;whiteSpace=wrap;html=1;fontSize=5;verticalAlign=middle;" parent="1" vertex="1">
                    <mxGeometry x="-120" y="390" width="50" height="10" as="geometry"/>
                </mxCell>
                <mxCell id="109" value="Ảnh" style="rounded=0;whiteSpace=wrap;html=1;fontSize=9;verticalAlign=middle;" parent="1" vertex="1">
                    <mxGeometry x="-62.5" y="340" width="50" height="50" as="geometry"/>
                </mxCell>
                <mxCell id="110" value="Tên nhân viên" style="rounded=0;whiteSpace=wrap;html=1;fontSize=5;verticalAlign=middle;" parent="1" vertex="1">
                    <mxGeometry x="-62.5" y="390" width="50" height="10" as="geometry"/>
                </mxCell>
                <mxCell id="111" value="Ảnh" style="rounded=0;whiteSpace=wrap;html=1;fontSize=9;verticalAlign=middle;" parent="1" vertex="1">
                    <mxGeometry x="-5" y="340" width="50" height="50" as="geometry"/>
                </mxCell>
                <mxCell id="112" value="Tên nhân viên" style="rounded=0;whiteSpace=wrap;html=1;fontSize=5;verticalAlign=middle;" parent="1" vertex="1">
                    <mxGeometry x="-5" y="390" width="50" height="10" as="geometry"/>
                </mxCell>
                <mxCell id="113" value="Ảnh" style="rounded=0;whiteSpace=wrap;html=1;fontSize=9;verticalAlign=middle;" parent="1" vertex="1">
                    <mxGeometry x="55" y="340" width="50" height="50" as="geometry"/>
                </mxCell>
                <mxCell id="114" value="Tên nhân viên" style="rounded=0;whiteSpace=wrap;html=1;fontSize=5;verticalAlign=middle;" parent="1" vertex="1">
                    <mxGeometry x="55" y="390" width="50" height="10" as="geometry"/>
                </mxCell>
                <mxCell id="115" value="Ảnh" style="rounded=0;whiteSpace=wrap;html=1;fontSize=9;verticalAlign=middle;" parent="1" vertex="1">
                    <mxGeometry x="115" y="340" width="50" height="50" as="geometry"/>
                </mxCell>
                <mxCell id="116" value="Tên nhân viên" style="rounded=0;whiteSpace=wrap;html=1;fontSize=5;verticalAlign=middle;" parent="1" vertex="1">
                    <mxGeometry x="115" y="390" width="50" height="10" as="geometry"/>
                </mxCell>
                <mxCell id="117" value="Ảnh" style="rounded=0;whiteSpace=wrap;html=1;fontSize=9;verticalAlign=middle;" parent="1" vertex="1">
                    <mxGeometry x="175" y="340" width="50" height="50" as="geometry"/>
                </mxCell>
                <mxCell id="118" value="Tên nhân viên" style="rounded=0;whiteSpace=wrap;html=1;fontSize=5;verticalAlign=middle;" parent="1" vertex="1">
                    <mxGeometry x="175" y="390" width="50" height="10" as="geometry"/>
                </mxCell>
                <mxCell id="119" value="" style="rounded=0;whiteSpace=wrap;html=1;fontSize=5;verticalAlign=middle;labelBackgroundColor=#E6E6E6;" parent="1" vertex="1">
                    <mxGeometry x="-160" y="470" width="440" height="100" as="geometry"/>
                </mxCell>
                <mxCell id="120" value="&lt;b&gt;FUNIX EDUCATION&lt;/b&gt;&lt;h1 style=&quot;font-size: 9px&quot;&gt;&lt;span style=&quot;font-size: 8px ; font-weight: normal&quot;&gt;Bài Assignment 02 môn React JS của học viên Quân Lê Bá. Mã số FX12493 hiện đang học khóa Doanh nghiệp tài trợ của FUNIX&lt;/span&gt;&lt;br&gt;&lt;/h1&gt;" style="text;html=1;strokeColor=none;fillColor=none;spacing=5;spacingTop=-20;whiteSpace=wrap;overflow=hidden;rounded=0;labelBackgroundColor=none;fontSize=9;verticalAlign=middle;align=center;" parent="1" vertex="1">
                    <mxGeometry x="-160" y="480" width="130" height="90" as="geometry"/>
                </mxCell>
                <mxCell id="121" value="&lt;h1 style=&quot;font-size: 9px&quot;&gt;PAGES&lt;/h1&gt;&lt;p style=&quot;font-size: 8px&quot;&gt;&lt;font style=&quot;font-size: 8px&quot;&gt;Nhân viên&lt;/font&gt;&lt;/p&gt;&lt;p style=&quot;font-size: 8px&quot;&gt;&lt;font style=&quot;font-size: 8px&quot;&gt;&amp;nbsp;Phòng ban&amp;nbsp;&lt;/font&gt;&lt;/p&gt;&lt;p style=&quot;font-size: 8px&quot;&gt;&lt;font style=&quot;font-size: 8px&quot;&gt;Bảng lương&lt;/font&gt;&lt;/p&gt;" style="text;html=1;strokeColor=none;fillColor=none;spacing=5;spacingTop=-20;whiteSpace=wrap;overflow=hidden;rounded=0;labelBackgroundColor=none;fontSize=9;align=center;verticalAlign=middle;" parent="1" vertex="1">
                    <mxGeometry x="-27.5" y="480" width="155" height="90" as="geometry"/>
                </mxCell>
                <mxCell id="123" value="&lt;h1 style=&quot;font-size: 9px&quot;&gt;LIÊN HỆ&lt;/h1&gt;&lt;p style=&quot;font-size: 8px&quot;&gt;&lt;font style=&quot;font-size: 8px&quot;&gt;Nhân viên&lt;/font&gt;&lt;/p&gt;&lt;p style=&quot;font-size: 8px&quot;&gt;&lt;font style=&quot;font-size: 8px&quot;&gt;&amp;nbsp;Phòng ban&amp;nbsp;&lt;/font&gt;&lt;/p&gt;&lt;p style=&quot;font-size: 8px&quot;&gt;&lt;font style=&quot;font-size: 8px&quot;&gt;Bảng lương&lt;/font&gt;&lt;/p&gt;" style="text;html=1;strokeColor=none;fillColor=none;spacing=5;spacingTop=-20;whiteSpace=wrap;overflow=hidden;rounded=0;labelBackgroundColor=none;fontSize=9;align=center;verticalAlign=middle;" parent="1" vertex="1">
                    <mxGeometry x="125" y="480" width="155" height="90" as="geometry"/>
                </mxCell>
                <mxCell id="124" value="© 2021 Copyright: QUANLBFX12493" style="rounded=0;whiteSpace=wrap;html=1;labelBackgroundColor=none;fontSize=9;align=center;verticalAlign=middle;" parent="1" vertex="1">
                    <mxGeometry x="-160" y="570" width="440" height="20" as="geometry"/>
                </mxCell>
                <mxCell id="125" value="Liên kết với Funix qua các phương tiện Social:" style="text;html=1;strokeColor=none;fillColor=none;align=center;verticalAlign=middle;whiteSpace=wrap;rounded=0;fontSize=8;" parent="1" vertex="1">
                    <mxGeometry x="-155" y="445" width="200" height="20" as="geometry"/>
                </mxCell>
                <mxCell id="127" value="" style="ellipse;whiteSpace=wrap;html=1;aspect=fixed;labelBackgroundColor=none;fontSize=8;align=center;verticalAlign=middle;" parent="1" vertex="1">
                    <mxGeometry x="260" y="450" width="10" height="10" as="geometry"/>
                </mxCell>
                <mxCell id="132" value="" style="ellipse;whiteSpace=wrap;html=1;aspect=fixed;labelBackgroundColor=none;fontSize=8;align=center;verticalAlign=middle;" parent="1" vertex="1">
                    <mxGeometry x="240" y="450" width="10" height="10" as="geometry"/>
                </mxCell>
                <mxCell id="133" value="" style="ellipse;whiteSpace=wrap;html=1;aspect=fixed;labelBackgroundColor=none;fontSize=8;align=center;verticalAlign=middle;" parent="1" vertex="1">
                    <mxGeometry x="220" y="450" width="10" height="10" as="geometry"/>
                </mxCell>
                <mxCell id="134" value="" style="ellipse;whiteSpace=wrap;html=1;aspect=fixed;labelBackgroundColor=none;fontSize=8;align=center;verticalAlign=middle;" parent="1" vertex="1">
                    <mxGeometry x="200" y="450" width="10" height="10" as="geometry"/>
                </mxCell>
                <mxCell id="135" value="" style="ellipse;whiteSpace=wrap;html=1;aspect=fixed;labelBackgroundColor=none;fontSize=8;align=center;verticalAlign=middle;" parent="1" vertex="1">
                    <mxGeometry x="180" y="450" width="10" height="10" as="geometry"/>
                </mxCell>
                <mxCell id="136" value="" style="ellipse;whiteSpace=wrap;html=1;aspect=fixed;labelBackgroundColor=none;fontSize=8;align=center;verticalAlign=middle;" parent="1" vertex="1">
                    <mxGeometry x="160" y="450" width="10" height="10" as="geometry"/>
                </mxCell>
                <mxCell id="137" value="" style="ellipse;whiteSpace=wrap;html=1;aspect=fixed;labelBackgroundColor=none;fontSize=8;align=center;verticalAlign=middle;" parent="1" vertex="1">
                    <mxGeometry x="140" y="450" width="10" height="10" as="geometry"/>
                </mxCell>
                <mxCell id="141" value="" style="rounded=0;whiteSpace=wrap;html=1;fontSize=5;verticalAlign=middle;labelBackgroundColor=#E6E6E6;" parent="1" vertex="1">
                    <mxGeometry x="510" y="40" width="440" height="60" as="geometry"/>
                </mxCell>
                <mxCell id="142" value="Logo" style="rounded=1;whiteSpace=wrap;html=1;" parent="1" vertex="1">
                    <mxGeometry x="570" y="55" width="60" height="30" as="geometry"/>
                </mxCell>
                <mxCell id="143" value="Nhân viên" style="rounded=0;whiteSpace=wrap;html=1;fontSize=9;" parent="1" vertex="1">
                    <mxGeometry x="670" y="60" width="70" height="20" as="geometry"/>
                </mxCell>
                <mxCell id="144" value="Bảng lương" style="rounded=0;whiteSpace=wrap;html=1;fontSize=9;" parent="1" vertex="1">
                    <mxGeometry x="850" y="60" width="70" height="20" as="geometry"/>
                </mxCell>
                <mxCell id="145" value="Phòng ban" style="rounded=0;whiteSpace=wrap;html=1;fontSize=9;" parent="1" vertex="1">
                    <mxGeometry x="760" y="60" width="70" height="20" as="geometry"/>
                </mxCell>
                <mxCell id="186" value="" style="rounded=0;whiteSpace=wrap;html=1;fontSize=5;verticalAlign=middle;labelBackgroundColor=#E6E6E6;" parent="1" vertex="1">
                    <mxGeometry x="510" y="470" width="440" height="100" as="geometry"/>
                </mxCell>
                <mxCell id="187" value="&lt;b&gt;FUNIX EDUCATION&lt;/b&gt;&lt;h1 style=&quot;font-size: 9px&quot;&gt;&lt;span style=&quot;font-size: 8px ; font-weight: normal&quot;&gt;Bài Assignment 02 môn React JS của học viên Quân Lê Bá. Mã số FX12493 hiện đang học khóa Doanh nghiệp tài trợ của FUNIX&lt;/span&gt;&lt;br&gt;&lt;/h1&gt;" style="text;html=1;strokeColor=none;fillColor=none;spacing=5;spacingTop=-20;whiteSpace=wrap;overflow=hidden;rounded=0;labelBackgroundColor=none;fontSize=9;verticalAlign=middle;align=center;" parent="1" vertex="1">
                    <mxGeometry x="510" y="480" width="130" height="90" as="geometry"/>
                </mxCell>
                <mxCell id="188" value="&lt;h1 style=&quot;font-size: 9px&quot;&gt;PAGES&lt;/h1&gt;&lt;p style=&quot;font-size: 8px&quot;&gt;&lt;font style=&quot;font-size: 8px&quot;&gt;Nhân viên&lt;/font&gt;&lt;/p&gt;&lt;p style=&quot;font-size: 8px&quot;&gt;&lt;font style=&quot;font-size: 8px&quot;&gt;&amp;nbsp;Phòng ban&amp;nbsp;&lt;/font&gt;&lt;/p&gt;&lt;p style=&quot;font-size: 8px&quot;&gt;&lt;font style=&quot;font-size: 8px&quot;&gt;Bảng lương&lt;/font&gt;&lt;/p&gt;" style="text;html=1;strokeColor=none;fillColor=none;spacing=5;spacingTop=-20;whiteSpace=wrap;overflow=hidden;rounded=0;labelBackgroundColor=none;fontSize=9;align=center;verticalAlign=middle;" parent="1" vertex="1">
                    <mxGeometry x="642.5" y="480" width="155" height="90" as="geometry"/>
                </mxCell>
                <mxCell id="189" value="&lt;h1 style=&quot;font-size: 9px&quot;&gt;LIÊN HỆ&lt;/h1&gt;&lt;p style=&quot;font-size: 8px&quot;&gt;&lt;font style=&quot;font-size: 8px&quot;&gt;Nhân viên&lt;/font&gt;&lt;/p&gt;&lt;p style=&quot;font-size: 8px&quot;&gt;&lt;font style=&quot;font-size: 8px&quot;&gt;&amp;nbsp;Phòng ban&amp;nbsp;&lt;/font&gt;&lt;/p&gt;&lt;p style=&quot;font-size: 8px&quot;&gt;&lt;font style=&quot;font-size: 8px&quot;&gt;Bảng lương&lt;/font&gt;&lt;/p&gt;" style="text;html=1;strokeColor=none;fillColor=none;spacing=5;spacingTop=-20;whiteSpace=wrap;overflow=hidden;rounded=0;labelBackgroundColor=none;fontSize=9;align=center;verticalAlign=middle;" parent="1" vertex="1">
                    <mxGeometry x="795" y="480" width="155" height="90" as="geometry"/>
                </mxCell>
                <mxCell id="190" value="© 2021 Copyright: QUANLBFX12493" style="rounded=0;whiteSpace=wrap;html=1;labelBackgroundColor=none;fontSize=9;align=center;verticalAlign=middle;" parent="1" vertex="1">
                    <mxGeometry x="510" y="570" width="440" height="20" as="geometry"/>
                </mxCell>
                <mxCell id="191" value="Liên kết với Funix qua các phương tiện Social:" style="text;html=1;strokeColor=none;fillColor=none;align=center;verticalAlign=middle;whiteSpace=wrap;rounded=0;fontSize=8;" parent="1" vertex="1">
                    <mxGeometry x="515" y="445" width="200" height="20" as="geometry"/>
                </mxCell>
                <mxCell id="192" value="" style="ellipse;whiteSpace=wrap;html=1;aspect=fixed;labelBackgroundColor=none;fontSize=8;align=center;verticalAlign=middle;" parent="1" vertex="1">
                    <mxGeometry x="930" y="450" width="10" height="10" as="geometry"/>
                </mxCell>
                <mxCell id="193" value="" style="ellipse;whiteSpace=wrap;html=1;aspect=fixed;labelBackgroundColor=none;fontSize=8;align=center;verticalAlign=middle;" parent="1" vertex="1">
                    <mxGeometry x="910" y="450" width="10" height="10" as="geometry"/>
                </mxCell>
                <mxCell id="194" value="" style="ellipse;whiteSpace=wrap;html=1;aspect=fixed;labelBackgroundColor=none;fontSize=8;align=center;verticalAlign=middle;" parent="1" vertex="1">
                    <mxGeometry x="890" y="450" width="10" height="10" as="geometry"/>
                </mxCell>
                <mxCell id="195" value="" style="ellipse;whiteSpace=wrap;html=1;aspect=fixed;labelBackgroundColor=none;fontSize=8;align=center;verticalAlign=middle;" parent="1" vertex="1">
                    <mxGeometry x="870" y="450" width="10" height="10" as="geometry"/>
                </mxCell>
                <mxCell id="196" value="" style="ellipse;whiteSpace=wrap;html=1;aspect=fixed;labelBackgroundColor=none;fontSize=8;align=center;verticalAlign=middle;" parent="1" vertex="1">
                    <mxGeometry x="850" y="450" width="10" height="10" as="geometry"/>
                </mxCell>
                <mxCell id="197" value="" style="ellipse;whiteSpace=wrap;html=1;aspect=fixed;labelBackgroundColor=none;fontSize=8;align=center;verticalAlign=middle;" parent="1" vertex="1">
                    <mxGeometry x="830" y="450" width="10" height="10" as="geometry"/>
                </mxCell>
                <mxCell id="198" value="" style="ellipse;whiteSpace=wrap;html=1;aspect=fixed;labelBackgroundColor=none;fontSize=8;align=center;verticalAlign=middle;" parent="1" vertex="1">
                    <mxGeometry x="810" y="450" width="10" height="10" as="geometry"/>
                </mxCell>
                <mxCell id="199" value="" style="rounded=0;whiteSpace=wrap;html=1;labelBackgroundColor=none;fontSize=8;align=center;verticalAlign=middle;" parent="1" vertex="1">
                    <mxGeometry x="520" y="120" width="420" height="20" as="geometry"/>
                </mxCell>
                <mxCell id="200" value="Trang chủ / &lt;b&gt;Phòng ban&lt;/b&gt;" style="text;html=1;strokeColor=none;fillColor=none;align=center;verticalAlign=middle;whiteSpace=wrap;rounded=0;labelBackgroundColor=none;fontSize=8;" parent="1" vertex="1">
                    <mxGeometry x="530" y="120" width="100" height="20" as="geometry"/>
                </mxCell>
                <mxCell id="201" value="Tên bộ phân" style="rounded=0;whiteSpace=wrap;html=1;labelBackgroundColor=none;fontSize=8;align=center;verticalAlign=middle;" parent="1" vertex="1">
                    <mxGeometry x="520" y="180" width="120" height="20" as="geometry"/>
                </mxCell>
                <mxCell id="202" value="" style="rounded=0;whiteSpace=wrap;html=1;labelBackgroundColor=none;fontSize=8;align=center;verticalAlign=middle;" parent="1" vertex="1">
                    <mxGeometry x="520" y="200" width="120" height="40" as="geometry"/>
                </mxCell>
                <mxCell id="207" value="Số lượng nhân viên" style="text;html=1;strokeColor=none;fillColor=none;align=center;verticalAlign=middle;whiteSpace=wrap;rounded=0;labelBackgroundColor=none;fontSize=8;" parent="1" vertex="1">
                    <mxGeometry x="526.25" y="210" width="73.75" height="20" as="geometry"/>
                </mxCell>
                <mxCell id="208" value="1" style="text;html=1;strokeColor=none;fillColor=none;align=center;verticalAlign=middle;whiteSpace=wrap;rounded=0;labelBackgroundColor=none;fontSize=8;" parent="1" vertex="1">
                    <mxGeometry x="602.5" y="210" width="37.5" height="20" as="geometry"/>
                </mxCell>
                <mxCell id="209" value="Tên bộ phân" style="rounded=0;whiteSpace=wrap;html=1;labelBackgroundColor=none;fontSize=8;align=center;verticalAlign=middle;" parent="1" vertex="1">
                    <mxGeometry x="820" y="180" width="120" height="20" as="geometry"/>
                </mxCell>
                <mxCell id="210" value="" style="rounded=0;whiteSpace=wrap;html=1;labelBackgroundColor=none;fontSize=8;align=center;verticalAlign=middle;" parent="1" vertex="1">
                    <mxGeometry x="820" y="200" width="120" height="40" as="geometry"/>
                </mxCell>
                <mxCell id="211" value="Số lượng nhân viên" style="text;html=1;strokeColor=none;fillColor=none;align=center;verticalAlign=middle;whiteSpace=wrap;rounded=0;labelBackgroundColor=none;fontSize=8;" parent="1" vertex="1">
                    <mxGeometry x="826.25" y="210" width="73.75" height="20" as="geometry"/>
                </mxCell>
                <mxCell id="212" value="1" style="text;html=1;strokeColor=none;fillColor=none;align=center;verticalAlign=middle;whiteSpace=wrap;rounded=0;labelBackgroundColor=none;fontSize=8;" parent="1" vertex="1">
                    <mxGeometry x="902.5" y="210" width="37.5" height="20" as="geometry"/>
                </mxCell>
                <mxCell id="213" value="Tên bộ phân" style="rounded=0;whiteSpace=wrap;html=1;labelBackgroundColor=none;fontSize=8;align=center;verticalAlign=middle;" parent="1" vertex="1">
                    <mxGeometry x="670" y="180" width="120" height="20" as="geometry"/>
                </mxCell>
                <mxCell id="214" value="" style="rounded=0;whiteSpace=wrap;html=1;labelBackgroundColor=none;fontSize=8;align=center;verticalAlign=middle;" parent="1" vertex="1">
                    <mxGeometry x="670" y="200" width="120" height="40" as="geometry"/>
                </mxCell>
                <mxCell id="215" value="Số lượng nhân viên" style="text;html=1;strokeColor=none;fillColor=none;align=center;verticalAlign=middle;whiteSpace=wrap;rounded=0;labelBackgroundColor=none;fontSize=8;" parent="1" vertex="1">
                    <mxGeometry x="676.25" y="210" width="73.75" height="20" as="geometry"/>
                </mxCell>
                <mxCell id="216" value="1" style="text;html=1;strokeColor=none;fillColor=none;align=center;verticalAlign=middle;whiteSpace=wrap;rounded=0;labelBackgroundColor=none;fontSize=8;" parent="1" vertex="1">
                    <mxGeometry x="752.5" y="210" width="37.5" height="20" as="geometry"/>
                </mxCell>
                <mxCell id="217" value="Tên bộ phân" style="rounded=0;whiteSpace=wrap;html=1;labelBackgroundColor=none;fontSize=8;align=center;verticalAlign=middle;" parent="1" vertex="1">
                    <mxGeometry x="520" y="255" width="120" height="20" as="geometry"/>
                </mxCell>
                <mxCell id="218" value="" style="rounded=0;whiteSpace=wrap;html=1;labelBackgroundColor=none;fontSize=8;align=center;verticalAlign=middle;" parent="1" vertex="1">
                    <mxGeometry x="520" y="275" width="120" height="40" as="geometry"/>
                </mxCell>
                <mxCell id="219" value="Số lượng nhân viên" style="text;html=1;strokeColor=none;fillColor=none;align=center;verticalAlign=middle;whiteSpace=wrap;rounded=0;labelBackgroundColor=none;fontSize=8;" parent="1" vertex="1">
                    <mxGeometry x="526.25" y="285" width="73.75" height="20" as="geometry"/>
                </mxCell>
                <mxCell id="220" value="1" style="text;html=1;strokeColor=none;fillColor=none;align=center;verticalAlign=middle;whiteSpace=wrap;rounded=0;labelBackgroundColor=none;fontSize=8;" parent="1" vertex="1">
                    <mxGeometry x="602.5" y="285" width="37.5" height="20" as="geometry"/>
                </mxCell>
                <mxCell id="221" value="Tên bộ phân" style="rounded=0;whiteSpace=wrap;html=1;labelBackgroundColor=none;fontSize=8;align=center;verticalAlign=middle;" parent="1" vertex="1">
                    <mxGeometry x="820" y="255" width="120" height="20" as="geometry"/>
                </mxCell>
                <mxCell id="222" value="" style="rounded=0;whiteSpace=wrap;html=1;labelBackgroundColor=none;fontSize=8;align=center;verticalAlign=middle;" parent="1" vertex="1">
                    <mxGeometry x="820" y="275" width="120" height="40" as="geometry"/>
                </mxCell>
                <mxCell id="223" value="Số lượng nhân viên" style="text;html=1;strokeColor=none;fillColor=none;align=center;verticalAlign=middle;whiteSpace=wrap;rounded=0;labelBackgroundColor=none;fontSize=8;" parent="1" vertex="1">
                    <mxGeometry x="826.25" y="285" width="73.75" height="20" as="geometry"/>
                </mxCell>
                <mxCell id="224" value="1" style="text;html=1;strokeColor=none;fillColor=none;align=center;verticalAlign=middle;whiteSpace=wrap;rounded=0;labelBackgroundColor=none;fontSize=8;" parent="1" vertex="1">
                    <mxGeometry x="902.5" y="285" width="37.5" height="20" as="geometry"/>
                </mxCell>
                <mxCell id="225" value="Tên bộ phân" style="rounded=0;whiteSpace=wrap;html=1;labelBackgroundColor=none;fontSize=8;align=center;verticalAlign=middle;" parent="1" vertex="1">
                    <mxGeometry x="670" y="255" width="120" height="20" as="geometry"/>
                </mxCell>
                <mxCell id="226" value="" style="rounded=0;whiteSpace=wrap;html=1;labelBackgroundColor=none;fontSize=8;align=center;verticalAlign=middle;" parent="1" vertex="1">
                    <mxGeometry x="670" y="275" width="120" height="40" as="geometry"/>
                </mxCell>
                <mxCell id="227" value="Số lượng nhân viên" style="text;html=1;strokeColor=none;fillColor=none;align=center;verticalAlign=middle;whiteSpace=wrap;rounded=0;labelBackgroundColor=none;fontSize=8;" parent="1" vertex="1">
                    <mxGeometry x="676.25" y="285" width="73.75" height="20" as="geometry"/>
                </mxCell>
                <mxCell id="228" value="1" style="text;html=1;strokeColor=none;fillColor=none;align=center;verticalAlign=middle;whiteSpace=wrap;rounded=0;labelBackgroundColor=none;fontSize=8;" parent="1" vertex="1">
                    <mxGeometry x="752.5" y="285" width="37.5" height="20" as="geometry"/>
                </mxCell>
                <mxCell id="229" value="Tên bộ phân" style="rounded=0;whiteSpace=wrap;html=1;labelBackgroundColor=none;fontSize=8;align=center;verticalAlign=middle;" parent="1" vertex="1">
                    <mxGeometry x="520" y="330" width="120" height="20" as="geometry"/>
                </mxCell>
                <mxCell id="230" value="" style="rounded=0;whiteSpace=wrap;html=1;labelBackgroundColor=none;fontSize=8;align=center;verticalAlign=middle;" parent="1" vertex="1">
                    <mxGeometry x="520" y="350" width="120" height="40" as="geometry"/>
                </mxCell>
                <mxCell id="231" value="Số lượng nhân viên" style="text;html=1;strokeColor=none;fillColor=none;align=center;verticalAlign=middle;whiteSpace=wrap;rounded=0;labelBackgroundColor=none;fontSize=8;" parent="1" vertex="1">
                    <mxGeometry x="526.25" y="360" width="73.75" height="20" as="geometry"/>
                </mxCell>
                <mxCell id="232" value="1" style="text;html=1;strokeColor=none;fillColor=none;align=center;verticalAlign=middle;whiteSpace=wrap;rounded=0;labelBackgroundColor=none;fontSize=8;" parent="1" vertex="1">
                    <mxGeometry x="602.5" y="360" width="37.5" height="20" as="geometry"/>
                </mxCell>
                <mxCell id="233" value="Tên bộ phân" style="rounded=0;whiteSpace=wrap;html=1;labelBackgroundColor=none;fontSize=8;align=center;verticalAlign=middle;" parent="1" vertex="1">
                    <mxGeometry x="820" y="330" width="120" height="20" as="geometry"/>
                </mxCell>
                <mxCell id="234" value="" style="rounded=0;whiteSpace=wrap;html=1;labelBackgroundColor=none;fontSize=8;align=center;verticalAlign=middle;" parent="1" vertex="1">
                    <mxGeometry x="820" y="350" width="120" height="40" as="geometry"/>
                </mxCell>
                <mxCell id="235" value="Số lượng nhân viên" style="text;html=1;strokeColor=none;fillColor=none;align=center;verticalAlign=middle;whiteSpace=wrap;rounded=0;labelBackgroundColor=none;fontSize=8;" parent="1" vertex="1">
                    <mxGeometry x="826.25" y="360" width="73.75" height="20" as="geometry"/>
                </mxCell>
                <mxCell id="236" value="1" style="text;html=1;strokeColor=none;fillColor=none;align=center;verticalAlign=middle;whiteSpace=wrap;rounded=0;labelBackgroundColor=none;fontSize=8;" parent="1" vertex="1">
                    <mxGeometry x="902.5" y="360" width="37.5" height="20" as="geometry"/>
                </mxCell>
                <mxCell id="237" value="Tên bộ phân" style="rounded=0;whiteSpace=wrap;html=1;labelBackgroundColor=none;fontSize=8;align=center;verticalAlign=middle;" parent="1" vertex="1">
                    <mxGeometry x="670" y="330" width="120" height="20" as="geometry"/>
                </mxCell>
                <mxCell id="238" value="" style="rounded=0;whiteSpace=wrap;html=1;labelBackgroundColor=none;fontSize=8;align=center;verticalAlign=middle;" parent="1" vertex="1">
                    <mxGeometry x="670" y="350" width="120" height="40" as="geometry"/>
                </mxCell>
                <mxCell id="239" value="Số lượng nhân viên" style="text;html=1;strokeColor=none;fillColor=none;align=center;verticalAlign=middle;whiteSpace=wrap;rounded=0;labelBackgroundColor=none;fontSize=8;" parent="1" vertex="1">
                    <mxGeometry x="676.25" y="360" width="73.75" height="20" as="geometry"/>
                </mxCell>
                <mxCell id="240" value="1" style="text;html=1;strokeColor=none;fillColor=none;align=center;verticalAlign=middle;whiteSpace=wrap;rounded=0;labelBackgroundColor=none;fontSize=8;" parent="1" vertex="1">
                    <mxGeometry x="752.5" y="360" width="37.5" height="20" as="geometry"/>
                </mxCell>
                <mxCell id="243" value="" style="rounded=0;whiteSpace=wrap;html=1;fontSize=5;verticalAlign=middle;labelBackgroundColor=#E6E6E6;" parent="1" vertex="1">
                    <mxGeometry x="980" y="40" width="440" height="60" as="geometry"/>
                </mxCell>
                <mxCell id="244" value="Logo" style="rounded=1;whiteSpace=wrap;html=1;" parent="1" vertex="1">
                    <mxGeometry x="1040" y="55" width="60" height="30" as="geometry"/>
                </mxCell>
                <mxCell id="245" value="Nhân viên" style="rounded=0;whiteSpace=wrap;html=1;fontSize=9;" parent="1" vertex="1">
                    <mxGeometry x="1140" y="60" width="70" height="20" as="geometry"/>
                </mxCell>
                <mxCell id="246" value="Bảng lương" style="rounded=0;whiteSpace=wrap;html=1;fontSize=9;" parent="1" vertex="1">
                    <mxGeometry x="1320" y="60" width="70" height="20" as="geometry"/>
                </mxCell>
                <mxCell id="247" value="Phòng ban" style="rounded=0;whiteSpace=wrap;html=1;fontSize=9;" parent="1" vertex="1">
                    <mxGeometry x="1230" y="60" width="70" height="20" as="geometry"/>
                </mxCell>
                <mxCell id="248" value="" style="rounded=0;whiteSpace=wrap;html=1;fontSize=5;verticalAlign=middle;labelBackgroundColor=#E6E6E6;" parent="1" vertex="1">
                    <mxGeometry x="980" y="470" width="440" height="100" as="geometry"/>
                </mxCell>
                <mxCell id="249" value="&lt;b&gt;FUNIX EDUCATION&lt;/b&gt;&lt;h1 style=&quot;font-size: 9px&quot;&gt;&lt;span style=&quot;font-size: 8px ; font-weight: normal&quot;&gt;Bài Assignment 02 môn React JS của học viên Quân Lê Bá. Mã số FX12493 hiện đang học khóa Doanh nghiệp tài trợ của FUNIX&lt;/span&gt;&lt;br&gt;&lt;/h1&gt;" style="text;html=1;strokeColor=none;fillColor=none;spacing=5;spacingTop=-20;whiteSpace=wrap;overflow=hidden;rounded=0;labelBackgroundColor=none;fontSize=9;verticalAlign=middle;align=center;" parent="1" vertex="1">
                    <mxGeometry x="980" y="480" width="130" height="90" as="geometry"/>
                </mxCell>
                <mxCell id="250" value="&lt;h1 style=&quot;font-size: 9px&quot;&gt;PAGES&lt;/h1&gt;&lt;p style=&quot;font-size: 8px&quot;&gt;&lt;font style=&quot;font-size: 8px&quot;&gt;Nhân viên&lt;/font&gt;&lt;/p&gt;&lt;p style=&quot;font-size: 8px&quot;&gt;&lt;font style=&quot;font-size: 8px&quot;&gt;&amp;nbsp;Phòng ban&amp;nbsp;&lt;/font&gt;&lt;/p&gt;&lt;p style=&quot;font-size: 8px&quot;&gt;&lt;font style=&quot;font-size: 8px&quot;&gt;Bảng lương&lt;/font&gt;&lt;/p&gt;" style="text;html=1;strokeColor=none;fillColor=none;spacing=5;spacingTop=-20;whiteSpace=wrap;overflow=hidden;rounded=0;labelBackgroundColor=none;fontSize=9;align=center;verticalAlign=middle;" parent="1" vertex="1">
                    <mxGeometry x="1112.5" y="480" width="155" height="90" as="geometry"/>
                </mxCell>
                <mxCell id="251" value="&lt;h1 style=&quot;font-size: 9px&quot;&gt;LIÊN HỆ&lt;/h1&gt;&lt;p style=&quot;font-size: 8px&quot;&gt;&lt;font style=&quot;font-size: 8px&quot;&gt;Nhân viên&lt;/font&gt;&lt;/p&gt;&lt;p style=&quot;font-size: 8px&quot;&gt;&lt;font style=&quot;font-size: 8px&quot;&gt;&amp;nbsp;Phòng ban&amp;nbsp;&lt;/font&gt;&lt;/p&gt;&lt;p style=&quot;font-size: 8px&quot;&gt;&lt;font style=&quot;font-size: 8px&quot;&gt;Bảng lương&lt;/font&gt;&lt;/p&gt;" style="text;html=1;strokeColor=none;fillColor=none;spacing=5;spacingTop=-20;whiteSpace=wrap;overflow=hidden;rounded=0;labelBackgroundColor=none;fontSize=9;align=center;verticalAlign=middle;" parent="1" vertex="1">
                    <mxGeometry x="1265" y="480" width="155" height="90" as="geometry"/>
                </mxCell>
                <mxCell id="252" value="© 2021 Copyright: QUANLBFX12493" style="rounded=0;whiteSpace=wrap;html=1;labelBackgroundColor=none;fontSize=9;align=center;verticalAlign=middle;" parent="1" vertex="1">
                    <mxGeometry x="980" y="570" width="440" height="20" as="geometry"/>
                </mxCell>
                <mxCell id="253" value="Liên kết với Funix qua các phương tiện Social:" style="text;html=1;strokeColor=none;fillColor=none;align=center;verticalAlign=middle;whiteSpace=wrap;rounded=0;fontSize=8;" parent="1" vertex="1">
                    <mxGeometry x="985" y="445" width="200" height="20" as="geometry"/>
                </mxCell>
                <mxCell id="254" value="" style="ellipse;whiteSpace=wrap;html=1;aspect=fixed;labelBackgroundColor=none;fontSize=8;align=center;verticalAlign=middle;" parent="1" vertex="1">
                    <mxGeometry x="1400" y="450" width="10" height="10" as="geometry"/>
                </mxCell>
                <mxCell id="255" value="" style="ellipse;whiteSpace=wrap;html=1;aspect=fixed;labelBackgroundColor=none;fontSize=8;align=center;verticalAlign=middle;" parent="1" vertex="1">
                    <mxGeometry x="1380" y="450" width="10" height="10" as="geometry"/>
                </mxCell>
                <mxCell id="256" value="" style="ellipse;whiteSpace=wrap;html=1;aspect=fixed;labelBackgroundColor=none;fontSize=8;align=center;verticalAlign=middle;" parent="1" vertex="1">
                    <mxGeometry x="1360" y="450" width="10" height="10" as="geometry"/>
                </mxCell>
                <mxCell id="257" value="" style="ellipse;whiteSpace=wrap;html=1;aspect=fixed;labelBackgroundColor=none;fontSize=8;align=center;verticalAlign=middle;" parent="1" vertex="1">
                    <mxGeometry x="1340" y="450" width="10" height="10" as="geometry"/>
                </mxCell>
                <mxCell id="258" value="" style="ellipse;whiteSpace=wrap;html=1;aspect=fixed;labelBackgroundColor=none;fontSize=8;align=center;verticalAlign=middle;" parent="1" vertex="1">
                    <mxGeometry x="1320" y="450" width="10" height="10" as="geometry"/>
                </mxCell>
                <mxCell id="259" value="" style="ellipse;whiteSpace=wrap;html=1;aspect=fixed;labelBackgroundColor=none;fontSize=8;align=center;verticalAlign=middle;" parent="1" vertex="1">
                    <mxGeometry x="1300" y="450" width="10" height="10" as="geometry"/>
                </mxCell>
                <mxCell id="260" value="" style="ellipse;whiteSpace=wrap;html=1;aspect=fixed;labelBackgroundColor=none;fontSize=8;align=center;verticalAlign=middle;" parent="1" vertex="1">
                    <mxGeometry x="1280" y="450" width="10" height="10" as="geometry"/>
                </mxCell>
                <mxCell id="261" value="" style="rounded=0;whiteSpace=wrap;html=1;labelBackgroundColor=none;fontSize=8;align=center;verticalAlign=middle;" parent="1" vertex="1">
                    <mxGeometry x="990" y="120" width="420" height="20" as="geometry"/>
                </mxCell>
                <mxCell id="262" value="Trang chủ / &lt;b&gt;Lương&lt;/b&gt;" style="text;html=1;strokeColor=none;fillColor=none;align=center;verticalAlign=middle;whiteSpace=wrap;rounded=0;labelBackgroundColor=none;fontSize=8;" parent="1" vertex="1">
                    <mxGeometry x="1000" y="120" width="100" height="20" as="geometry"/>
                </mxCell>
                <mxCell id="263" value="Tên nhân viên&amp;nbsp;" style="rounded=0;whiteSpace=wrap;html=1;labelBackgroundColor=none;fontSize=8;align=center;verticalAlign=middle;" parent="1" vertex="1">
                    <mxGeometry x="990" y="180" width="120" height="20" as="geometry"/>
                </mxCell>
                <mxCell id="264" value="" style="rounded=0;whiteSpace=wrap;html=1;labelBackgroundColor=none;fontSize=8;align=center;verticalAlign=middle;" parent="1" vertex="1">
                    <mxGeometry x="990" y="200" width="120" height="80" as="geometry"/>
                </mxCell>
                <mxCell id="265" value="Mã nhân viên" style="text;html=1;strokeColor=none;fillColor=none;align=center;verticalAlign=middle;whiteSpace=wrap;rounded=0;labelBackgroundColor=none;fontSize=8;" parent="1" vertex="1">
                    <mxGeometry x="996.25" y="210" width="73.75" height="20" as="geometry"/>
                </mxCell>
                <mxCell id="266" value="1" style="text;html=1;strokeColor=none;fillColor=none;align=center;verticalAlign=middle;whiteSpace=wrap;rounded=0;labelBackgroundColor=none;fontSize=8;" parent="1" vertex="1">
                    <mxGeometry x="1072.5" y="210" width="37.5" height="20" as="geometry"/>
                </mxCell>
                <mxCell id="299" value="Sắp xếp mã nhân viên" style="rounded=1;whiteSpace=wrap;html=1;labelBackgroundColor=none;fontSize=8;align=center;verticalAlign=middle;" parent="1" vertex="1">
                    <mxGeometry x="1310" y="150" width="100" height="20" as="geometry"/>
                </mxCell>
                <mxCell id="300" value="1" style="text;html=1;strokeColor=none;fillColor=none;align=center;verticalAlign=middle;whiteSpace=wrap;rounded=0;labelBackgroundColor=none;fontSize=8;" parent="1" vertex="1">
                    <mxGeometry x="1072.5" y="230" width="37.5" height="20" as="geometry"/>
                </mxCell>
                <mxCell id="301" value="Hệ sống lương" style="text;html=1;strokeColor=none;fillColor=none;align=center;verticalAlign=middle;whiteSpace=wrap;rounded=0;labelBackgroundColor=none;fontSize=8;" parent="1" vertex="1">
                    <mxGeometry x="996.25" y="230" width="73.75" height="20" as="geometry"/>
                </mxCell>
                <mxCell id="302" value="1" style="text;html=1;strokeColor=none;fillColor=none;align=center;verticalAlign=middle;whiteSpace=wrap;rounded=0;labelBackgroundColor=none;fontSize=8;" parent="1" vertex="1">
                    <mxGeometry x="1072.5" y="250" width="37.5" height="20" as="geometry"/>
                </mxCell>
                <mxCell id="303" value="Giờ làm thêm" style="text;html=1;strokeColor=none;fillColor=none;align=center;verticalAlign=middle;whiteSpace=wrap;rounded=0;labelBackgroundColor=none;fontSize=8;" parent="1" vertex="1">
                    <mxGeometry x="996.25" y="250" width="73.75" height="20" as="geometry"/>
                </mxCell>
                <mxCell id="304" value="Lương $$$" style="rounded=0;whiteSpace=wrap;html=1;labelBackgroundColor=none;fontSize=8;align=center;verticalAlign=middle;" parent="1" vertex="1">
                    <mxGeometry x="990" y="280" width="120" height="20" as="geometry"/>
                </mxCell>
                <mxCell id="305" value="Tên nhân viên&amp;nbsp;" style="rounded=0;whiteSpace=wrap;html=1;labelBackgroundColor=none;fontSize=8;align=center;verticalAlign=middle;" parent="1" vertex="1">
                    <mxGeometry x="1290" y="180" width="120" height="20" as="geometry"/>
                </mxCell>
                <mxCell id="306" value="" style="rounded=0;whiteSpace=wrap;html=1;labelBackgroundColor=none;fontSize=8;align=center;verticalAlign=middle;" parent="1" vertex="1">
                    <mxGeometry x="1290" y="200" width="120" height="80" as="geometry"/>
                </mxCell>
                <mxCell id="307" value="Mã nhân viên" style="text;html=1;strokeColor=none;fillColor=none;align=center;verticalAlign=middle;whiteSpace=wrap;rounded=0;labelBackgroundColor=none;fontSize=8;" parent="1" vertex="1">
                    <mxGeometry x="1296.25" y="210" width="73.75" height="20" as="geometry"/>
                </mxCell>
                <mxCell id="308" value="1" style="text;html=1;strokeColor=none;fillColor=none;align=center;verticalAlign=middle;whiteSpace=wrap;rounded=0;labelBackgroundColor=none;fontSize=8;" parent="1" vertex="1">
                    <mxGeometry x="1372.5" y="210" width="37.5" height="20" as="geometry"/>
                </mxCell>
                <mxCell id="309" value="1" style="text;html=1;strokeColor=none;fillColor=none;align=center;verticalAlign=middle;whiteSpace=wrap;rounded=0;labelBackgroundColor=none;fontSize=8;" parent="1" vertex="1">
                    <mxGeometry x="1372.5" y="230" width="37.5" height="20" as="geometry"/>
                </mxCell>
                <mxCell id="310" value="Hệ sống lương" style="text;html=1;strokeColor=none;fillColor=none;align=center;verticalAlign=middle;whiteSpace=wrap;rounded=0;labelBackgroundColor=none;fontSize=8;" parent="1" vertex="1">
                    <mxGeometry x="1296.25" y="230" width="73.75" height="20" as="geometry"/>
                </mxCell>
                <mxCell id="311" value="1" style="text;html=1;strokeColor=none;fillColor=none;align=center;verticalAlign=middle;whiteSpace=wrap;rounded=0;labelBackgroundColor=none;fontSize=8;" parent="1" vertex="1">
                    <mxGeometry x="1372.5" y="250" width="37.5" height="20" as="geometry"/>
                </mxCell>
                <mxCell id="312" value="Giờ làm thêm" style="text;html=1;strokeColor=none;fillColor=none;align=center;verticalAlign=middle;whiteSpace=wrap;rounded=0;labelBackgroundColor=none;fontSize=8;" parent="1" vertex="1">
                    <mxGeometry x="1296.25" y="250" width="73.75" height="20" as="geometry"/>
                </mxCell>
                <mxCell id="313" value="Lương $$$" style="rounded=0;whiteSpace=wrap;html=1;labelBackgroundColor=none;fontSize=8;align=center;verticalAlign=middle;" parent="1" vertex="1">
                    <mxGeometry x="1290" y="280" width="120" height="20" as="geometry"/>
                </mxCell>
                <mxCell id="314" value="Tên nhân viên&amp;nbsp;" style="rounded=0;whiteSpace=wrap;html=1;labelBackgroundColor=none;fontSize=8;align=center;verticalAlign=middle;" parent="1" vertex="1">
                    <mxGeometry x="1140" y="180" width="120" height="20" as="geometry"/>
                </mxCell>
                <mxCell id="315" value="" style="rounded=0;whiteSpace=wrap;html=1;labelBackgroundColor=none;fontSize=8;align=center;verticalAlign=middle;" parent="1" vertex="1">
                    <mxGeometry x="1140" y="200" width="120" height="80" as="geometry"/>
                </mxCell>
                <mxCell id="316" value="Mã nhân viên" style="text;html=1;strokeColor=none;fillColor=none;align=center;verticalAlign=middle;whiteSpace=wrap;rounded=0;labelBackgroundColor=none;fontSize=8;" parent="1" vertex="1">
                    <mxGeometry x="1146.25" y="210" width="73.75" height="20" as="geometry"/>
                </mxCell>
                <mxCell id="317" value="1" style="text;html=1;strokeColor=none;fillColor=none;align=center;verticalAlign=middle;whiteSpace=wrap;rounded=0;labelBackgroundColor=none;fontSize=8;" parent="1" vertex="1">
                    <mxGeometry x="1222.5" y="210" width="37.5" height="20" as="geometry"/>
                </mxCell>
                <mxCell id="318" value="1" style="text;html=1;strokeColor=none;fillColor=none;align=center;verticalAlign=middle;whiteSpace=wrap;rounded=0;labelBackgroundColor=none;fontSize=8;" parent="1" vertex="1">
                    <mxGeometry x="1222.5" y="230" width="37.5" height="20" as="geometry"/>
                </mxCell>
                <mxCell id="319" value="Hệ sống lương" style="text;html=1;strokeColor=none;fillColor=none;align=center;verticalAlign=middle;whiteSpace=wrap;rounded=0;labelBackgroundColor=none;fontSize=8;" parent="1" vertex="1">
                    <mxGeometry x="1146.25" y="230" width="73.75" height="20" as="geometry"/>
                </mxCell>
                <mxCell id="320" value="1" style="text;html=1;strokeColor=none;fillColor=none;align=center;verticalAlign=middle;whiteSpace=wrap;rounded=0;labelBackgroundColor=none;fontSize=8;" parent="1" vertex="1">
                    <mxGeometry x="1222.5" y="250" width="37.5" height="20" as="geometry"/>
                </mxCell>
                <mxCell id="321" value="Giờ làm thêm" style="text;html=1;strokeColor=none;fillColor=none;align=center;verticalAlign=middle;whiteSpace=wrap;rounded=0;labelBackgroundColor=none;fontSize=8;" parent="1" vertex="1">
                    <mxGeometry x="1146.25" y="250" width="73.75" height="20" as="geometry"/>
                </mxCell>
                <mxCell id="322" value="Lương $$$" style="rounded=0;whiteSpace=wrap;html=1;labelBackgroundColor=none;fontSize=8;align=center;verticalAlign=middle;" parent="1" vertex="1">
                    <mxGeometry x="1140" y="280" width="120" height="20" as="geometry"/>
                </mxCell>
                <mxCell id="350" value="Tên nhân viên&amp;nbsp;" style="rounded=0;whiteSpace=wrap;html=1;labelBackgroundColor=none;fontSize=8;align=center;verticalAlign=middle;" parent="1" vertex="1">
                    <mxGeometry x="990" y="315" width="120" height="20" as="geometry"/>
                </mxCell>
                <mxCell id="351" value="" style="rounded=0;whiteSpace=wrap;html=1;labelBackgroundColor=none;fontSize=8;align=center;verticalAlign=middle;" parent="1" vertex="1">
                    <mxGeometry x="990" y="335" width="120" height="80" as="geometry"/>
                </mxCell>
                <mxCell id="352" value="Mã nhân viên" style="text;html=1;strokeColor=none;fillColor=none;align=center;verticalAlign=middle;whiteSpace=wrap;rounded=0;labelBackgroundColor=none;fontSize=8;" parent="1" vertex="1">
                    <mxGeometry x="996.25" y="345" width="73.75" height="20" as="geometry"/>
                </mxCell>
                <mxCell id="353" value="1" style="text;html=1;strokeColor=none;fillColor=none;align=center;verticalAlign=middle;whiteSpace=wrap;rounded=0;labelBackgroundColor=none;fontSize=8;" parent="1" vertex="1">
                    <mxGeometry x="1072.5" y="345" width="37.5" height="20" as="geometry"/>
                </mxCell>
                <mxCell id="354" value="1" style="text;html=1;strokeColor=none;fillColor=none;align=center;verticalAlign=middle;whiteSpace=wrap;rounded=0;labelBackgroundColor=none;fontSize=8;" parent="1" vertex="1">
                    <mxGeometry x="1072.5" y="365" width="37.5" height="20" as="geometry"/>
                </mxCell>
                <mxCell id="355" value="Hệ sống lương" style="text;html=1;strokeColor=none;fillColor=none;align=center;verticalAlign=middle;whiteSpace=wrap;rounded=0;labelBackgroundColor=none;fontSize=8;" parent="1" vertex="1">
                    <mxGeometry x="996.25" y="365" width="73.75" height="20" as="geometry"/>
                </mxCell>
                <mxCell id="356" value="1" style="text;html=1;strokeColor=none;fillColor=none;align=center;verticalAlign=middle;whiteSpace=wrap;rounded=0;labelBackgroundColor=none;fontSize=8;" parent="1" vertex="1">
                    <mxGeometry x="1072.5" y="385" width="37.5" height="20" as="geometry"/>
                </mxCell>
                <mxCell id="357" value="Giờ làm thêm" style="text;html=1;strokeColor=none;fillColor=none;align=center;verticalAlign=middle;whiteSpace=wrap;rounded=0;labelBackgroundColor=none;fontSize=8;" parent="1" vertex="1">
                    <mxGeometry x="996.25" y="385" width="73.75" height="20" as="geometry"/>
                </mxCell>
                <mxCell id="358" value="Lương $$$" style="rounded=0;whiteSpace=wrap;html=1;labelBackgroundColor=none;fontSize=8;align=center;verticalAlign=middle;" parent="1" vertex="1">
                    <mxGeometry x="990" y="415" width="120" height="20" as="geometry"/>
                </mxCell>
                <mxCell id="359" value="Tên nhân viên&amp;nbsp;" style="rounded=0;whiteSpace=wrap;html=1;labelBackgroundColor=none;fontSize=8;align=center;verticalAlign=middle;" parent="1" vertex="1">
                    <mxGeometry x="1290" y="315" width="120" height="20" as="geometry"/>
                </mxCell>
                <mxCell id="360" value="" style="rounded=0;whiteSpace=wrap;html=1;labelBackgroundColor=none;fontSize=8;align=center;verticalAlign=middle;" parent="1" vertex="1">
                    <mxGeometry x="1290" y="335" width="120" height="80" as="geometry"/>
                </mxCell>
                <mxCell id="361" value="Mã nhân viên" style="text;html=1;strokeColor=none;fillColor=none;align=center;verticalAlign=middle;whiteSpace=wrap;rounded=0;labelBackgroundColor=none;fontSize=8;" parent="1" vertex="1">
                    <mxGeometry x="1296.25" y="345" width="73.75" height="20" as="geometry"/>
                </mxCell>
                <mxCell id="362" value="1" style="text;html=1;strokeColor=none;fillColor=none;align=center;verticalAlign=middle;whiteSpace=wrap;rounded=0;labelBackgroundColor=none;fontSize=8;" parent="1" vertex="1">
                    <mxGeometry x="1372.5" y="345" width="37.5" height="20" as="geometry"/>
                </mxCell>
                <mxCell id="363" value="1" style="text;html=1;strokeColor=none;fillColor=none;align=center;verticalAlign=middle;whiteSpace=wrap;rounded=0;labelBackgroundColor=none;fontSize=8;" parent="1" vertex="1">
                    <mxGeometry x="1372.5" y="365" width="37.5" height="20" as="geometry"/>
                </mxCell>
                <mxCell id="364" value="Hệ sống lương" style="text;html=1;strokeColor=none;fillColor=none;align=center;verticalAlign=middle;whiteSpace=wrap;rounded=0;labelBackgroundColor=none;fontSize=8;" parent="1" vertex="1">
                    <mxGeometry x="1296.25" y="365" width="73.75" height="20" as="geometry"/>
                </mxCell>
                <mxCell id="365" value="1" style="text;html=1;strokeColor=none;fillColor=none;align=center;verticalAlign=middle;whiteSpace=wrap;rounded=0;labelBackgroundColor=none;fontSize=8;" parent="1" vertex="1">
                    <mxGeometry x="1372.5" y="385" width="37.5" height="20" as="geometry"/>
                </mxCell>
                <mxCell id="366" value="Giờ làm thêm" style="text;html=1;strokeColor=none;fillColor=none;align=center;verticalAlign=middle;whiteSpace=wrap;rounded=0;labelBackgroundColor=none;fontSize=8;" parent="1" vertex="1">
                    <mxGeometry x="1296.25" y="385" width="73.75" height="20" as="geometry"/>
                </mxCell>
                <mxCell id="367" value="Lương $$$" style="rounded=0;whiteSpace=wrap;html=1;labelBackgroundColor=none;fontSize=8;align=center;verticalAlign=middle;" parent="1" vertex="1">
                    <mxGeometry x="1290" y="415" width="120" height="20" as="geometry"/>
                </mxCell>
                <mxCell id="368" value="Tên nhân viên&amp;nbsp;" style="rounded=0;whiteSpace=wrap;html=1;labelBackgroundColor=none;fontSize=8;align=center;verticalAlign=middle;" parent="1" vertex="1">
                    <mxGeometry x="1140" y="315" width="120" height="20" as="geometry"/>
                </mxCell>
                <mxCell id="369" value="" style="rounded=0;whiteSpace=wrap;html=1;labelBackgroundColor=none;fontSize=8;align=center;verticalAlign=middle;" parent="1" vertex="1">
                    <mxGeometry x="1140" y="335" width="120" height="80" as="geometry"/>
                </mxCell>
                <mxCell id="370" value="Mã nhân viên" style="text;html=1;strokeColor=none;fillColor=none;align=center;verticalAlign=middle;whiteSpace=wrap;rounded=0;labelBackgroundColor=none;fontSize=8;" parent="1" vertex="1">
                    <mxGeometry x="1146.25" y="345" width="73.75" height="20" as="geometry"/>
                </mxCell>
                <mxCell id="371" value="1" style="text;html=1;strokeColor=none;fillColor=none;align=center;verticalAlign=middle;whiteSpace=wrap;rounded=0;labelBackgroundColor=none;fontSize=8;" parent="1" vertex="1">
                    <mxGeometry x="1222.5" y="345" width="37.5" height="20" as="geometry"/>
                </mxCell>
                <mxCell id="372" value="1" style="text;html=1;strokeColor=none;fillColor=none;align=center;verticalAlign=middle;whiteSpace=wrap;rounded=0;labelBackgroundColor=none;fontSize=8;" parent="1" vertex="1">
                    <mxGeometry x="1222.5" y="365" width="37.5" height="20" as="geometry"/>
                </mxCell>
                <mxCell id="373" value="Hệ sống lương" style="text;html=1;strokeColor=none;fillColor=none;align=center;verticalAlign=middle;whiteSpace=wrap;rounded=0;labelBackgroundColor=none;fontSize=8;" parent="1" vertex="1">
                    <mxGeometry x="1146.25" y="365" width="73.75" height="20" as="geometry"/>
                </mxCell>
                <mxCell id="374" value="1" style="text;html=1;strokeColor=none;fillColor=none;align=center;verticalAlign=middle;whiteSpace=wrap;rounded=0;labelBackgroundColor=none;fontSize=8;" parent="1" vertex="1">
                    <mxGeometry x="1222.5" y="385" width="37.5" height="20" as="geometry"/>
                </mxCell>
                <mxCell id="375" value="Giờ làm thêm" style="text;html=1;strokeColor=none;fillColor=none;align=center;verticalAlign=middle;whiteSpace=wrap;rounded=0;labelBackgroundColor=none;fontSize=8;" parent="1" vertex="1">
                    <mxGeometry x="1146.25" y="385" width="73.75" height="20" as="geometry"/>
                </mxCell>
                <mxCell id="376" value="Lương $$$" style="rounded=0;whiteSpace=wrap;html=1;labelBackgroundColor=none;fontSize=8;align=center;verticalAlign=middle;" parent="1" vertex="1">
                    <mxGeometry x="1140" y="415" width="120" height="20" as="geometry"/>
                </mxCell>
                <mxCell id="439" value="" style="rounded=0;whiteSpace=wrap;html=1;fontSize=5;verticalAlign=middle;labelBackgroundColor=#E6E6E6;" parent="1" vertex="1">
                    <mxGeometry x="-160" y="640" width="440" height="60" as="geometry"/>
                </mxCell>
                <mxCell id="440" value="Logo" style="rounded=1;whiteSpace=wrap;html=1;" parent="1" vertex="1">
                    <mxGeometry x="-100" y="655" width="60" height="30" as="geometry"/>
                </mxCell>
                <mxCell id="441" value="Nhân viên" style="rounded=0;whiteSpace=wrap;html=1;fontSize=9;" parent="1" vertex="1">
                    <mxGeometry y="660" width="70" height="20" as="geometry"/>
                </mxCell>
                <mxCell id="442" value="Bảng lương" style="rounded=0;whiteSpace=wrap;html=1;fontSize=9;" parent="1" vertex="1">
                    <mxGeometry x="180" y="660" width="70" height="20" as="geometry"/>
                </mxCell>
                <mxCell id="443" value="Phòng ban" style="rounded=0;whiteSpace=wrap;html=1;fontSize=9;" parent="1" vertex="1">
                    <mxGeometry x="90" y="660" width="70" height="20" as="geometry"/>
                </mxCell>
                <mxCell id="444" value="" style="rounded=0;whiteSpace=wrap;html=1;fontSize=5;verticalAlign=middle;labelBackgroundColor=#E6E6E6;" parent="1" vertex="1">
                    <mxGeometry x="-160" y="985" width="440" height="100" as="geometry"/>
                </mxCell>
                <mxCell id="445" value="&lt;b&gt;FUNIX EDUCATION&lt;/b&gt;&lt;h1 style=&quot;font-size: 9px&quot;&gt;&lt;span style=&quot;font-size: 8px ; font-weight: normal&quot;&gt;Bài Assignment 02 môn React JS của học viên Quân Lê Bá. Mã số FX12493 hiện đang học khóa Doanh nghiệp tài trợ của FUNIX&lt;/span&gt;&lt;br&gt;&lt;/h1&gt;" style="text;html=1;strokeColor=none;fillColor=none;spacing=5;spacingTop=-20;whiteSpace=wrap;overflow=hidden;rounded=0;labelBackgroundColor=none;fontSize=9;verticalAlign=middle;align=center;" parent="1" vertex="1">
                    <mxGeometry x="-160" y="995" width="130" height="90" as="geometry"/>
                </mxCell>
                <mxCell id="446" value="&lt;h1 style=&quot;font-size: 9px&quot;&gt;PAGES&lt;/h1&gt;&lt;p style=&quot;font-size: 8px&quot;&gt;&lt;font style=&quot;font-size: 8px&quot;&gt;Nhân viên&lt;/font&gt;&lt;/p&gt;&lt;p style=&quot;font-size: 8px&quot;&gt;&lt;font style=&quot;font-size: 8px&quot;&gt;&amp;nbsp;Phòng ban&amp;nbsp;&lt;/font&gt;&lt;/p&gt;&lt;p style=&quot;font-size: 8px&quot;&gt;&lt;font style=&quot;font-size: 8px&quot;&gt;Bảng lương&lt;/font&gt;&lt;/p&gt;" style="text;html=1;strokeColor=none;fillColor=none;spacing=5;spacingTop=-20;whiteSpace=wrap;overflow=hidden;rounded=0;labelBackgroundColor=none;fontSize=9;align=center;verticalAlign=middle;" parent="1" vertex="1">
                    <mxGeometry x="-27.5" y="995" width="155" height="90" as="geometry"/>
                </mxCell>
                <mxCell id="447" value="&lt;h1 style=&quot;font-size: 9px&quot;&gt;LIÊN HỆ&lt;/h1&gt;&lt;p style=&quot;font-size: 8px&quot;&gt;&lt;font style=&quot;font-size: 8px&quot;&gt;Nhân viên&lt;/font&gt;&lt;/p&gt;&lt;p style=&quot;font-size: 8px&quot;&gt;&lt;font style=&quot;font-size: 8px&quot;&gt;&amp;nbsp;Phòng ban&amp;nbsp;&lt;/font&gt;&lt;/p&gt;&lt;p style=&quot;font-size: 8px&quot;&gt;&lt;font style=&quot;font-size: 8px&quot;&gt;Bảng lương&lt;/font&gt;&lt;/p&gt;" style="text;html=1;strokeColor=none;fillColor=none;spacing=5;spacingTop=-20;whiteSpace=wrap;overflow=hidden;rounded=0;labelBackgroundColor=none;fontSize=9;align=center;verticalAlign=middle;" parent="1" vertex="1">
                    <mxGeometry x="125" y="995" width="155" height="90" as="geometry"/>
                </mxCell>
                <mxCell id="448" value="© 2021 Copyright: QUANLBFX12493" style="rounded=0;whiteSpace=wrap;html=1;labelBackgroundColor=none;fontSize=9;align=center;verticalAlign=middle;" parent="1" vertex="1">
                    <mxGeometry x="-160" y="1085" width="440" height="20" as="geometry"/>
                </mxCell>
                <mxCell id="449" value="Liên kết với Funix qua các phương tiện Social:" style="text;html=1;strokeColor=none;fillColor=none;align=center;verticalAlign=middle;whiteSpace=wrap;rounded=0;fontSize=8;" parent="1" vertex="1">
                    <mxGeometry x="-155" y="960" width="200" height="20" as="geometry"/>
                </mxCell>
                <mxCell id="450" value="" style="ellipse;whiteSpace=wrap;html=1;aspect=fixed;labelBackgroundColor=none;fontSize=8;align=center;verticalAlign=middle;" parent="1" vertex="1">
                    <mxGeometry x="260" y="965" width="10" height="10" as="geometry"/>
                </mxCell>
                <mxCell id="451" value="" style="ellipse;whiteSpace=wrap;html=1;aspect=fixed;labelBackgroundColor=none;fontSize=8;align=center;verticalAlign=middle;" parent="1" vertex="1">
                    <mxGeometry x="240" y="965" width="10" height="10" as="geometry"/>
                </mxCell>
                <mxCell id="452" value="" style="ellipse;whiteSpace=wrap;html=1;aspect=fixed;labelBackgroundColor=none;fontSize=8;align=center;verticalAlign=middle;" parent="1" vertex="1">
                    <mxGeometry x="220" y="965" width="10" height="10" as="geometry"/>
                </mxCell>
                <mxCell id="453" value="" style="ellipse;whiteSpace=wrap;html=1;aspect=fixed;labelBackgroundColor=none;fontSize=8;align=center;verticalAlign=middle;" parent="1" vertex="1">
                    <mxGeometry x="200" y="965" width="10" height="10" as="geometry"/>
                </mxCell>
                <mxCell id="454" value="" style="ellipse;whiteSpace=wrap;html=1;aspect=fixed;labelBackgroundColor=none;fontSize=8;align=center;verticalAlign=middle;" parent="1" vertex="1">
                    <mxGeometry x="180" y="965" width="10" height="10" as="geometry"/>
                </mxCell>
                <mxCell id="455" value="" style="ellipse;whiteSpace=wrap;html=1;aspect=fixed;labelBackgroundColor=none;fontSize=8;align=center;verticalAlign=middle;" parent="1" vertex="1">
                    <mxGeometry x="160" y="965" width="10" height="10" as="geometry"/>
                </mxCell>
                <mxCell id="456" value="" style="ellipse;whiteSpace=wrap;html=1;aspect=fixed;labelBackgroundColor=none;fontSize=8;align=center;verticalAlign=middle;" parent="1" vertex="1">
                    <mxGeometry x="140" y="965" width="10" height="10" as="geometry"/>
                </mxCell>
                <mxCell id="457" value="" style="rounded=0;whiteSpace=wrap;html=1;labelBackgroundColor=none;fontSize=8;align=center;verticalAlign=middle;" parent="1" vertex="1">
                    <mxGeometry x="-150" y="720" width="420" height="20" as="geometry"/>
                </mxCell>
                <mxCell id="458" value="Trang chủ / &lt;b&gt;Tên nhân viên&lt;/b&gt;" style="text;html=1;strokeColor=none;fillColor=none;align=center;verticalAlign=middle;whiteSpace=wrap;rounded=0;labelBackgroundColor=none;fontSize=8;" parent="1" vertex="1">
                    <mxGeometry x="-140" y="720" width="100" height="20" as="geometry"/>
                </mxCell>
                <mxCell id="495" value="Hình ảnh nhân viên" style="rounded=0;whiteSpace=wrap;html=1;labelBackgroundColor=none;fontSize=12;align=center;verticalAlign=middle;" parent="1" vertex="1">
                    <mxGeometry x="-150" y="780" width="140" height="110" as="geometry"/>
                </mxCell>
                <mxCell id="496" value="" style="rounded=0;whiteSpace=wrap;html=1;labelBackgroundColor=none;fontSize=8;align=center;verticalAlign=middle;" parent="1" vertex="1">
                    <mxGeometry x="20" y="800" width="250" height="90" as="geometry"/>
                </mxCell>
                <mxCell id="497" value="Tên nhân viên" style="rounded=0;whiteSpace=wrap;html=1;labelBackgroundColor=none;fontSize=12;align=center;verticalAlign=middle;" parent="1" vertex="1">
                    <mxGeometry x="20" y="780" width="250" height="20" as="geometry"/>
                </mxCell>
                <mxCell id="499" value="Phòng ban&amp;nbsp;" style="text;html=1;strokeColor=none;fillColor=none;align=left;verticalAlign=middle;whiteSpace=wrap;rounded=0;labelBackgroundColor=none;fontSize=7;" parent="1" vertex="1">
                    <mxGeometry x="30" y="810" width="160" height="10" as="geometry"/>
                </mxCell>
                <mxCell id="500" value="Finance" style="text;html=1;strokeColor=none;fillColor=none;align=left;verticalAlign=middle;whiteSpace=wrap;rounded=0;labelBackgroundColor=none;fontSize=7;" parent="1" vertex="1">
                    <mxGeometry x="200" y="810" width="60" height="10" as="geometry"/>
                </mxCell>
                <mxCell id="505" value="Phòng ban&amp;nbsp;" style="text;html=1;strokeColor=none;fillColor=none;align=left;verticalAlign=middle;whiteSpace=wrap;rounded=0;labelBackgroundColor=none;fontSize=7;" parent="1" vertex="1">
                    <mxGeometry x="30" y="825" width="160" height="10" as="geometry"/>
                </mxCell>
                <mxCell id="506" value="Finance" style="text;html=1;strokeColor=none;fillColor=none;align=left;verticalAlign=middle;whiteSpace=wrap;rounded=0;labelBackgroundColor=none;fontSize=7;" parent="1" vertex="1">
                    <mxGeometry x="200" y="825" width="60" height="10" as="geometry"/>
                </mxCell>
                <mxCell id="509" value="Ngày vào công ty" style="text;html=1;strokeColor=none;fillColor=none;align=left;verticalAlign=middle;whiteSpace=wrap;rounded=0;labelBackgroundColor=none;fontSize=7;" parent="1" vertex="1">
                    <mxGeometry x="30" y="840" width="160" height="10" as="geometry"/>
                </mxCell>
                <mxCell id="510" value="04/30/2019" style="text;html=1;strokeColor=none;fillColor=none;align=left;verticalAlign=middle;whiteSpace=wrap;rounded=0;labelBackgroundColor=none;fontSize=7;" parent="1" vertex="1">
                    <mxGeometry x="200" y="840" width="60" height="10" as="geometry"/>
                </mxCell>
                <mxCell id="511" value="Ngày nghỉ còn lại" style="text;html=1;strokeColor=none;fillColor=none;align=left;verticalAlign=middle;whiteSpace=wrap;rounded=0;labelBackgroundColor=none;fontSize=7;" parent="1" vertex="1">
                    <mxGeometry x="30" y="855" width="160" height="10" as="geometry"/>
                </mxCell>
                <mxCell id="512" value="9" style="text;html=1;strokeColor=none;fillColor=none;align=left;verticalAlign=middle;whiteSpace=wrap;rounded=0;labelBackgroundColor=none;fontSize=7;" parent="1" vertex="1">
                    <mxGeometry x="200" y="855" width="60" height="10" as="geometry"/>
                </mxCell>
                <mxCell id="513" value="Ngày làm thêm giờ" style="text;html=1;strokeColor=none;fillColor=none;align=left;verticalAlign=middle;whiteSpace=wrap;rounded=0;labelBackgroundColor=none;fontSize=7;" parent="1" vertex="1">
                    <mxGeometry x="30" y="870" width="160" height="10" as="geometry"/>
                </mxCell>
                <mxCell id="514" value="10" style="text;html=1;strokeColor=none;fillColor=none;align=left;verticalAlign=middle;whiteSpace=wrap;rounded=0;labelBackgroundColor=none;fontSize=7;" parent="1" vertex="1">
                    <mxGeometry x="200" y="870" width="60" height="10" as="geometry"/>
                </mxCell>
                <mxCell id="516" value="" style="edgeStyle=elbowEdgeStyle;elbow=horizontal;endArrow=classic;html=1;exitX=0;exitY=0.5;exitDx=0;exitDy=0;" edge="1" parent="1" source="29">
                    <mxGeometry width="50" height="50" relative="1" as="geometry">
                        <mxPoint x="-200" y="160" as="sourcePoint"/>
                        <mxPoint x="-220" y="130" as="targetPoint"/>
                        <Array as="points">
                            <mxPoint x="-210" y="130"/>
                            <mxPoint x="-170" y="160"/>
                        </Array>
                    </mxGeometry>
                </mxCell>
                <mxCell id="517" value="Chức năng filter danh sách nhân viên theo phòng ban: Khi ấn vào sẽ dropdown : Sale, HR, Marketing, IT, Finance" style="text;html=1;strokeColor=none;fillColor=none;align=center;verticalAlign=middle;whiteSpace=wrap;rounded=0;" vertex="1" parent="1">
                    <mxGeometry x="-400" y="85" width="170" height="90" as="geometry"/>
                </mxCell>
                <mxCell id="518" value="" style="endArrow=classic;html=1;exitX=1;exitY=0.5;exitDx=0;exitDy=0;" edge="1" parent="1" source="30">
                    <mxGeometry width="50" height="50" relative="1" as="geometry">
                        <mxPoint x="80" y="370" as="sourcePoint"/>
                        <mxPoint x="320" y="130" as="targetPoint"/>
                    </mxGeometry>
                </mxCell>
                <mxCell id="520" value="Nhập tên nhân viên cần tìm kiếm để lọc ra trong danh sách nhân viên" style="text;html=1;strokeColor=none;fillColor=none;align=center;verticalAlign=middle;whiteSpace=wrap;rounded=0;" vertex="1" parent="1">
                    <mxGeometry x="317.5" y="100" width="142.5" height="60" as="geometry"/>
                </mxCell>
                <mxCell id="521" value="" style="endArrow=classic;html=1;exitX=1;exitY=0.5;exitDx=0;exitDy=0;" edge="1" parent="1" source="299">
                    <mxGeometry width="50" height="50" relative="1" as="geometry">
                        <mxPoint x="1220" y="320" as="sourcePoint"/>
                        <mxPoint x="1450" y="160" as="targetPoint"/>
                    </mxGeometry>
                </mxCell>
                <mxCell id="522" value="Chức năng sắp xếp mã nhân viên theo thứ tự tăng hoặc giảm dần" style="text;html=1;strokeColor=none;fillColor=none;align=center;verticalAlign=middle;whiteSpace=wrap;rounded=0;" vertex="1" parent="1">
                    <mxGeometry x="1450" y="130" width="170" height="60" as="geometry"/>
                </mxCell>
                <mxCell id="524" value="TRANG CHỦ / TRANG NHÂN VIÊN" style="text;html=1;strokeColor=none;fillColor=none;align=center;verticalAlign=middle;whiteSpace=wrap;rounded=0;" vertex="1" parent="1">
                    <mxGeometry x="-67.5" y="20" width="235" height="20" as="geometry"/>
                </mxCell>
                <mxCell id="525" value="TRANG PHÒNG BAN" style="text;html=1;strokeColor=none;fillColor=none;align=center;verticalAlign=middle;whiteSpace=wrap;rounded=0;" vertex="1" parent="1">
                    <mxGeometry x="612.5" y="20" width="235" height="20" as="geometry"/>
                </mxCell>
                <mxCell id="526" value="TRANG BẢNG LƯƠNG" style="text;html=1;strokeColor=none;fillColor=none;align=center;verticalAlign=middle;whiteSpace=wrap;rounded=0;" vertex="1" parent="1">
                    <mxGeometry x="1072.5" y="20" width="235" height="20" as="geometry"/>
                </mxCell>
                <mxCell id="527" value="TRANG CHI TIẾT NHÂN VIÊN" style="text;html=1;strokeColor=none;fillColor=none;align=center;verticalAlign=middle;whiteSpace=wrap;rounded=0;" vertex="1" parent="1">
                    <mxGeometry x="-67.5" y="620" width="235" height="20" as="geometry"/>
                </mxCell>
                <mxCell id="528" value="NHÂN VIÊN PAGE" style="shape=process;whiteSpace=wrap;html=1;backgroundOutline=1;rounded=0;" vertex="1" parent="1">
                    <mxGeometry x="515" y="865" width="120" height="60" as="geometry"/>
                </mxCell>
                <mxCell id="538" style="edgeStyle=orthogonalEdgeStyle;rounded=0;orthogonalLoop=1;jettySize=auto;html=1;entryX=0.5;entryY=0;entryDx=0;entryDy=0;" edge="1" parent="1" source="529" target="537">
                    <mxGeometry relative="1" as="geometry"/>
                </mxCell>
                <mxCell id="529" value="PHÒNG BAN PAGE" style="shape=process;whiteSpace=wrap;html=1;backgroundOutline=1;rounded=0;" vertex="1" parent="1">
                    <mxGeometry x="675" y="865" width="120" height="60" as="geometry"/>
                </mxCell>
                <mxCell id="540" style="edgeStyle=orthogonalEdgeStyle;rounded=0;orthogonalLoop=1;jettySize=auto;html=1;entryX=0.5;entryY=0;entryDx=0;entryDy=0;" edge="1" parent="1" source="530" target="539">
                    <mxGeometry relative="1" as="geometry"/>
                </mxCell>
                <mxCell id="530" value="NHÂN VIÊN PAGE" style="shape=process;whiteSpace=wrap;html=1;backgroundOutline=1;rounded=0;" vertex="1" parent="1">
                    <mxGeometry x="835" y="865" width="120" height="60" as="geometry"/>
                </mxCell>
                <mxCell id="532" value="CHI TIẾT NHÂN VIÊN PAGE" style="shape=process;whiteSpace=wrap;html=1;backgroundOutline=1;rounded=0;" vertex="1" parent="1">
                    <mxGeometry x="515" y="1095" width="120" height="60" as="geometry"/>
                </mxCell>
                <mxCell id="533" value="" style="endArrow=classic;html=1;exitX=0.5;exitY=1;exitDx=0;exitDy=0;entryX=0.5;entryY=0;entryDx=0;entryDy=0;" edge="1" parent="1" source="528" target="534">
                    <mxGeometry width="50" height="50" relative="1" as="geometry">
                        <mxPoint x="615" y="985" as="sourcePoint"/>
                        <mxPoint x="645" y="975" as="targetPoint"/>
                    </mxGeometry>
                </mxCell>
                <mxCell id="534" value="RENDER DANH SÁCH NHÂN VIÊN" style="shape=process;whiteSpace=wrap;html=1;backgroundOutline=1;rounded=0;size=0.08333333333333333;" vertex="1" parent="1">
                    <mxGeometry x="515" y="985" width="120" height="60" as="geometry"/>
                </mxCell>
                <mxCell id="535" value="" style="endArrow=classic;html=1;exitX=0.5;exitY=1;exitDx=0;exitDy=0;entryX=0.5;entryY=0;entryDx=0;entryDy=0;" edge="1" parent="1" source="534" target="532">
                    <mxGeometry width="50" height="50" relative="1" as="geometry">
                        <mxPoint x="615" y="985" as="sourcePoint"/>
                        <mxPoint x="725" y="1045" as="targetPoint"/>
                    </mxGeometry>
                </mxCell>
                <mxCell id="537" value="RENDER DANH SÁCH PHÒNG BAN" style="shape=process;whiteSpace=wrap;html=1;backgroundOutline=1;rounded=0;" vertex="1" parent="1">
                    <mxGeometry x="675" y="985" width="120" height="60" as="geometry"/>
                </mxCell>
                <mxCell id="539" value="&lt;font style=&quot;font-size: 11px&quot;&gt;RENDER DANH SÁCH BẢNG LƯƠNG TẤT CẢ NHÂN VIÊN&lt;/font&gt;" style="shape=process;whiteSpace=wrap;html=1;backgroundOutline=1;rounded=0;" vertex="1" parent="1">
                    <mxGeometry x="835" y="985" width="120" height="60" as="geometry"/>
                </mxCell>
                <mxCell id="542" style="edgeStyle=orthogonalEdgeStyle;rounded=0;orthogonalLoop=1;jettySize=auto;html=1;entryX=0.5;entryY=0;entryDx=0;entryDy=0;" edge="1" parent="1" source="541" target="528">
                    <mxGeometry relative="1" as="geometry">
                        <Array as="points">
                            <mxPoint x="735" y="830"/>
                            <mxPoint x="575" y="830"/>
                        </Array>
                    </mxGeometry>
                </mxCell>
                <mxCell id="543" style="edgeStyle=orthogonalEdgeStyle;rounded=0;orthogonalLoop=1;jettySize=auto;html=1;entryX=0.5;entryY=0;entryDx=0;entryDy=0;" edge="1" parent="1" source="541" target="529">
                    <mxGeometry relative="1" as="geometry"/>
                </mxCell>
                <mxCell id="544" style="edgeStyle=orthogonalEdgeStyle;rounded=0;orthogonalLoop=1;jettySize=auto;html=1;entryX=0.5;entryY=0;entryDx=0;entryDy=0;" edge="1" parent="1" source="541" target="530">
                    <mxGeometry relative="1" as="geometry">
                        <Array as="points">
                            <mxPoint x="735" y="830"/>
                            <mxPoint x="895" y="830"/>
                        </Array>
                    </mxGeometry>
                </mxCell>
                <mxCell id="541" value="ASM02 APP" style="rounded=1;whiteSpace=wrap;html=1;" vertex="1" parent="1">
                    <mxGeometry x="675" y="720" width="120" height="60" as="geometry"/>
                </mxCell>
                <mxCell id="546" value="&lt;font style=&quot;font-size: 16px&quot;&gt;CÁU TRÚC ĐIỀU HƯỚNG&lt;/font&gt;" style="text;html=1;strokeColor=#005700;fillColor=#008a00;align=center;verticalAlign=middle;whiteSpace=wrap;rounded=0;fontColor=#ffffff;" vertex="1" parent="1">
                    <mxGeometry x="615" y="640" width="230" height="60" as="geometry"/>
                </mxCell>
                <mxCell id="547" value="&lt;h1&gt;TỔNG QUAN&lt;/h1&gt;&lt;p&gt;WEB APP gồm 3 trang chính là: Nhân viên (Home) , Phòng ban và bảng lương.&lt;/p&gt;&lt;p&gt;&lt;/p&gt;&lt;span&gt;&lt;font style=&quot;font-size: 13px&quot;&gt;&lt;b&gt;Trang nhân viên:&amp;nbsp;&lt;/b&gt;&lt;/font&gt;&lt;/span&gt;&lt;br&gt;&lt;p&gt;&lt;/p&gt;&lt;p&gt;&lt;/p&gt;&lt;ul&gt;&lt;li&gt;&lt;span&gt;Sẽ render ra danh sách tất cả các nhân viên gồm ảnh gà tên nhân viên.&amp;nbsp;&lt;/span&gt;&lt;/li&gt;&lt;li&gt;Chức năng. Filter nhân viên theo tên phòng ban hoặc keyword tìm kiếm&lt;/li&gt;&lt;li&gt;Khi ấn vào nhân viên cụ thể sẽ điều hướng về trang chi tiết nhan viên cụ thể đó&lt;/li&gt;&lt;/ul&gt;&lt;div style=&quot;font-size: 13px&quot;&gt;&lt;font style=&quot;font-size: 13px&quot;&gt;&lt;b&gt;Trang chi tiết nhân viên&lt;/b&gt;&lt;/font&gt;&lt;/div&gt;&lt;div&gt;&lt;ul style=&quot;font-size: 13px&quot;&gt;&lt;li&gt;Render cụ thể ảnh và toàn bộ thông tin của nhân viên đó&lt;/li&gt;&lt;/ul&gt;&lt;div&gt;&lt;b&gt;&lt;font style=&quot;font-size: 14px&quot;&gt;Trang phòng ban:&lt;/font&gt;&lt;/b&gt;&lt;/div&gt;&lt;/div&gt;&lt;div&gt;&lt;ul&gt;&lt;li&gt;Render danh sách tất cả các phòng ban gồm: tên phòng ban và số lượng nhân viên của mỗi phòng ban đó.&lt;/li&gt;&lt;/ul&gt;&lt;div&gt;&lt;font style=&quot;font-size: 13px&quot;&gt;&lt;b&gt;Trang bảng lương:&lt;/b&gt;&lt;/font&gt;&lt;/div&gt;&lt;/div&gt;&lt;div&gt;&lt;ul&gt;&lt;li&gt;Render danh sách bảng lương của tất cả các nhân viên bao gồm : tên nhân viên, mã nhân viên, hệ số lương, giờ làm thêm và lương của từng nhân viên cụ thể.&lt;/li&gt;&lt;li&gt;Chức năng: sắp xếp danh sách bảng lương theo mã nhân viên tăng hoặc giảm dần&lt;/li&gt;&lt;/ul&gt;&lt;/div&gt;&lt;p&gt;&lt;/p&gt;" style="text;html=1;strokeColor=none;fillColor=none;spacing=5;spacingTop=-20;whiteSpace=wrap;overflow=hidden;rounded=0;" vertex="1" parent="1">
                    <mxGeometry x="-730" y="225" width="400" height="605" as="geometry"/>
                </mxCell>
                <mxCell id="549" value="" style="edgeStyle=elbowEdgeStyle;elbow=horizontal;endArrow=classic;html=1;exitX=1;exitY=0.5;exitDx=0;exitDy=0;" edge="1" parent="1" source="27">
                    <mxGeometry width="50" height="50" relative="1" as="geometry">
                        <mxPoint x="290" y="150" as="sourcePoint"/>
                        <mxPoint x="350" y="40" as="targetPoint"/>
                    </mxGeometry>
                </mxCell>
                <mxCell id="550" value="Navigation menu" style="text;html=1;strokeColor=none;fillColor=none;align=center;verticalAlign=middle;whiteSpace=wrap;rounded=0;" vertex="1" parent="1">
                    <mxGeometry x="338.75" y="30" width="121.25" height="20" as="geometry"/>
                </mxCell>
            </root>
        </mxGraphModel>
    </diagram>
</mxfile>